<svg xmlns="http://www.w3.org/2000/svg" width="160" height="161" viewBox="0 0 160 161" fill="none">
  <g filter="url(#filter0_d_409_56)">
    <path fill-rule="evenodd" clip-rule="evenodd" d="M75.7831 30.4243C52.4784 32.5244 34.2158 52.1104 34.2158 75.9618C34.2158 101.214 54.6871 121.686 79.9398 121.686C104.262 121.686 124.149 102.695 125.581 78.7331H125.664V30.238H80.0323C80.0014 30.2379 79.9706 30.2379 79.9398 30.2379C79.9089 30.2379 79.8781 30.2379 79.8473 30.238H75.7831V30.4243Z" fill="white"/>
  </g>
  <path fill-rule="evenodd" clip-rule="evenodd" d="M79.2542 53.9571C78.1656 53.9571 77.2823 53.0739 77.2823 51.9853C77.2823 50.8967 78.1656 50.0134 79.2542 50.0134C80.3428 50.0134 81.226 50.8967 81.226 51.9853C81.226 53.0739 80.3428 53.9571 79.2542 53.9571ZM78.5969 51.9853C78.5969 52.3473 78.8922 52.6426 79.2542 52.6426C79.6162 52.6426 79.9115 52.3473 79.9115 51.9853C79.9115 51.6233 79.6162 51.328 79.2542 51.328C78.8922 51.328 78.5969 51.6233 78.5969 51.9853Z" fill="#CF2031"/>
  <path fill-rule="evenodd" clip-rule="evenodd" d="M75.9678 64.4736H73.3387V66.774C73.3387 66.792 73.3387 66.81 73.3361 66.828L75.7753 69.2671C76.032 69.5238 76.032 69.9397 75.7753 70.1965L73.3387 72.6331V74.99H75.9678C76.3299 74.99 76.6251 75.2853 76.6251 75.6473V76.9619H85.1698V72.3609H82.5407C82.1786 72.3609 81.8834 72.0656 81.8834 71.7036V67.7599C81.8834 67.3979 82.1786 67.1026 82.5407 67.1026H89.1135C89.4755 67.1026 89.7708 67.3979 89.7708 67.7599V71.7036C89.7708 72.0656 89.4755 72.3609 89.1135 72.3609H86.4843V77.6192C86.4843 77.9812 86.1891 78.2764 85.8271 78.2764H76.6251V79.591C76.6251 79.953 76.3299 80.2483 75.9678 80.2483H73.3387V87.4784H81.2261V86.1638C81.2261 85.9148 81.3673 85.6863 81.5907 85.5759C81.8115 85.4655 82.0785 85.4886 82.2788 85.6375L84.9079 87.6093C85.0722 87.7351 85.1698 87.9277 85.1698 88.1357C85.1698 88.3436 85.0722 88.5362 84.9079 88.662L82.2788 90.6339C82.0785 90.7828 81.8115 90.8059 81.5907 90.6955C81.3673 90.5851 81.2261 90.3566 81.2261 90.1075V88.7929H72.6814C72.3194 88.7929 72.0241 88.4977 72.0241 88.1357V80.2483H69.395C69.033 80.2483 68.7377 79.953 68.7377 79.591V75.6473C68.7377 75.2853 69.033 74.99 69.395 74.99H72.0241V72.6331L69.5876 70.1965C69.4644 70.0733 69.395 69.9064 69.395 69.7318C69.395 69.5572 69.4644 69.3903 69.5876 69.2671L72.0267 66.828C72.0241 66.81 72.0241 66.792 72.0241 66.7741V64.4736H69.395C69.033 64.4736 68.7377 64.1783 68.7377 63.8163V59.8726C68.7377 59.5106 69.033 59.2153 69.395 59.2153H75.9678C76.3299 59.2153 76.6251 59.5106 76.6251 59.8726V63.8163C76.6251 64.1783 76.3299 64.4736 75.9678 64.4736ZM70.0523 78.9338V76.3046H75.3106V78.9338H70.0523ZM83.1979 68.4173H88.4562V71.0464H83.1979V68.4173ZM75.3106 60.5299V63.159H70.0523V60.5299H75.3106ZM83.4162 88.1357L82.5407 88.793V87.4784L83.4162 88.1357ZM70.9817 69.7318L72.6814 71.4315L74.381 69.7318L72.6814 68.0322L70.9817 69.7318Z" fill="#CF2031"/>
  <path fill-rule="evenodd" clip-rule="evenodd" d="M63.4794 55.929C63.4794 54.1138 64.9506 52.6426 66.7658 52.6426H70.7121C71.5054 52.6426 72.2706 52.9301 72.8688 53.4488L75.1641 55.4463C75.5236 55.757 75.9832 55.929 76.4582 55.929H82.0502C82.5252 55.929 82.9848 55.757 83.3443 55.4463L85.6396 53.4488C86.2379 52.9302 87.003 52.6426 87.7963 52.6426H91.7426C93.5578 52.6426 95.029 54.1138 95.029 55.929V91.4222C95.029 93.2374 93.5578 94.7086 91.7426 94.7086H66.7658C64.9506 94.7086 63.4794 93.2374 63.4794 91.4222V55.929ZM66.7658 53.9571C65.6773 53.9571 64.794 54.8404 64.794 55.929V91.4222C64.794 92.5108 65.6773 93.3941 66.7658 93.3941H91.7426C92.8311 93.3941 93.7144 92.5108 93.7144 91.4222V55.929C93.7144 54.8404 92.8311 53.9571 91.7426 53.9571H87.7963C87.3213 53.9571 86.8617 54.1292 86.5022 54.4398L84.2069 56.4374C83.6087 56.956 82.8435 57.2436 82.0502 57.2436H76.4582C75.6648 57.2436 74.8997 56.956 74.3015 56.4374L72.0062 54.4398C71.6467 54.1292 71.1871 53.9571 70.7121 53.9571H66.7658Z" fill="#CF2031"/>
  <path fill-rule="evenodd" clip-rule="evenodd" d="M62.8222 47.3843C60.2803 47.3843 58.2212 49.4434 58.2212 51.9853V95.3659C58.2212 97.9077 60.2803 99.9668 62.8222 99.9668H95.6863C98.2281 99.9668 100.287 97.9077 100.287 95.3659V51.9853C100.287 49.4434 98.2281 47.3843 95.6863 47.3843H62.8222ZM59.5358 51.9853C59.5358 50.17 61.0069 48.6988 62.8222 48.6988H95.6863C97.5015 48.6988 98.9727 50.17 98.9727 51.9853V95.3659C98.9727 97.1811 97.5015 98.6523 95.6863 98.6523H62.8222C61.0069 98.6523 59.5358 97.1811 59.5358 95.3659V51.9853Z" fill="#CF2031"/>
  <defs>
    <filter id="filter0_d_409_56" x="0.368122" y="0.903121" width="159.143" height="159.143" filterUnits="userSpaceOnUse" color-interpolation-filters="sRGB">
      <feFlood flood-opacity="0" result="BackgroundImageFix"/>
      <feColorMatrix in="SourceAlpha" type="matrix" values="0 0 0 0 0 0 0 0 0 0 0 0 0 0 0 0 0 0 127 0" result="hardAlpha"/>
      <feOffset dy="4.51303"/>
      <feGaussianBlur stdDeviation="16.9238"/>
      <feComposite in2="hardAlpha" operator="out"/>
      <feColorMatrix type="matrix" values="0 0 0 0 0.575 0 0 0 0 0.565417 0 0 0 0 0.565417 0 0 0 0.25 0"/>
      <feBlend mode="normal" in2="BackgroundImageFix" result="effect1_dropShadow_409_56"/>
      <feBlend mode="normal" in="SourceGraphic" in2="effect1_dropShadow_409_56" result="shape"/>
    </filter>
  </defs>
</svg>