<svg xmlns="http://www.w3.org/2000/svg" width="160" height="160" viewBox="0 0 160 160" fill="none">
  <g filter="url(#filter0_d_409_54)">
    <path fill-rule="evenodd" clip-rule="evenodd" d="M75.7816 121.272C52.4769 119.171 34.2144 99.5854 34.2144 75.734C34.2144 50.4813 54.6857 30.01 79.9383 30.01C104.26 30.01 124.147 49.0005 125.58 72.9627H125.662V121.458H80.0308C80 121.458 79.9692 121.458 79.9383 121.458C79.9075 121.458 79.8766 121.458 79.8458 121.458H75.7816V121.272Z" fill="white"/>
  </g>
  <path fill-rule="evenodd" clip-rule="evenodd" d="M87.2045 94.0644C87.2045 94.9228 86.8516 95.7022 86.2813 96.2659C85.7111 96.8317 84.9278 97.1819 84.0628 97.1819H81.1578C81.1277 97.1819 81.0975 97.1819 81.0674 97.1798L79.3459 97.2011V98.8901C79.3459 99.4389 79.12 99.9364 78.7563 100.297C78.3927 100.658 77.8913 100.882 77.3382 100.882C76.7874 100.882 76.286 100.658 75.9223 100.297L75.9202 100.295C75.5565 99.9342 75.3306 99.4367 75.3306 98.8901V97.1477C74.8077 97.0623 74.3192 96.9278 73.8695 96.7442C73.1938 96.4708 72.6042 96.0908 72.105 95.6039C71.5907 95.2345 71.0785 94.9527 70.575 94.7584C70.0758 94.5641 69.5873 94.4573 69.1096 94.4402L66.0431 94.4146V95.179C66.0431 95.5463 65.744 95.843 65.3739 95.843H57.7454C57.3753 95.843 57.0762 95.5462 57.0762 95.179V76.2176C57.0762 75.8503 57.3753 75.5535 57.7454 75.5535H65.3739C65.7441 75.5535 66.0431 75.8503 66.0431 76.2176V77.1101L67.2353 77.108L69.1375 77.1122C69.8735 77.1101 70.5427 77.0119 71.1409 76.8111C71.7241 76.6168 72.247 76.3243 72.7053 75.9357C73.2906 75.4403 73.891 75.0623 74.5107 74.8019C74.7818 74.6887 75.0573 74.5969 75.3327 74.5285L75.3306 52.5781C75.3306 52.0315 75.5565 51.534 75.9202 51.1731L75.9223 51.171C76.286 50.8101 76.7874 50.5859 77.3382 50.5859C77.8891 50.5859 78.3905 50.8101 78.7542 51.171L78.7563 51.1731C79.12 51.534 79.3459 52.0315 79.3459 52.5781V74.4176L80.6134 74.4325C80.6306 74.4304 80.6478 74.4304 80.665 74.4304H81.1234C81.7345 74.4304 82.2918 74.6781 82.6943 75.0774L82.733 75.1179C83.0235 75.419 83.2279 75.8034 83.3076 76.2261H85.9974C86.8624 76.2261 87.6479 76.5763 88.2159 77.1422C88.784 77.7058 89.1369 78.4852 89.1369 79.3436C89.1369 80.0141 88.9218 80.6376 88.5538 81.1479C89.3005 81.2184 89.974 81.5493 90.4776 82.049C91.0456 82.6127 91.4007 83.392 91.4007 84.2504C91.4007 85.1088 91.0478 85.8882 90.4776 86.4518C90.1333 86.7935 89.7094 87.0561 89.2402 87.2099C89.6728 87.7437 89.931 88.4205 89.931 89.1551C89.931 90.0135 89.5781 90.7928 89.0078 91.3565C88.4398 91.9202 87.6543 92.2726 86.7893 92.2726H86.6279C86.9937 92.7808 87.2045 93.4004 87.2045 94.0644ZM81.3211 71.6505C81.4567 71.6014 81.5793 71.5074 81.6611 71.3772C83.9679 67.6618 87.5076 69.2782 91.3125 71.012C95.3968 72.8762 99.752 74.8619 103.709 71.5352L103.707 71.533C103.987 71.2982 104.024 70.8818 103.787 70.6042C102.952 69.6199 102.223 68.6312 101.596 67.6383C100.977 66.6561 100.456 65.6632 100.034 64.6575C100.023 64.6319 100.01 64.6041 99.9953 64.5785C99.9286 64.4632 99.8942 64.35 99.8942 64.2411V64.239C99.8964 64.1216 99.9394 63.9892 100.019 63.844C101.136 62.2361 102.018 60.7798 102.664 59.4752C103.331 58.13 103.755 56.9364 103.933 55.8943C103.966 55.7086 103.918 55.51 103.785 55.3563C103.546 55.0765 103.126 55.0424 102.844 55.2773C99.5349 58.0617 95.5756 56.2552 91.8632 54.5619C87.5057 52.574 83.4497 50.7227 80.5251 55.4353C80.4627 55.5356 80.4239 55.6574 80.4261 55.7855C80.4411 58.0723 80.4498 60.609 80.4498 63.4044C80.4498 66.1909 80.4411 68.7233 80.4261 71.0058C80.4239 71.0464 80.4282 71.0848 80.4325 71.1254C80.439 71.1702 80.4498 71.2086 80.4648 71.2513C80.5143 71.3859 80.609 71.5076 80.7403 71.5887C80.8801 71.6741 81.0394 71.7019 81.19 71.6805C81.2373 71.6763 81.2781 71.6654 81.3211 71.6505ZM81.7881 63.4084C81.7881 65.1615 81.7816 67.0661 81.7709 69.118C84.5532 66.4745 88.0949 68.0888 91.8652 69.8098C95.3834 71.4155 99.1257 73.1216 102.325 70.9201C101.632 70.066 101.013 69.2055 100.468 68.3385C99.8097 67.2922 99.2588 66.2481 98.8177 65.2018C98.6434 64.8879 98.5573 64.5612 98.5638 64.2196V64.2153C98.5702 63.8694 98.6713 63.5235 98.8629 63.184L98.8973 63.1327C99.9862 61.5676 100.845 60.154 101.469 58.8942C101.742 58.3412 101.972 57.8202 102.155 57.3291C98.6305 59.1077 94.8688 57.3931 91.3118 55.7703C87.5611 54.06 84.0688 52.4649 81.7595 55.9774C81.7789 58.6956 81.7875 61.1747 81.7875 63.4083L81.7881 63.4084ZM78.0072 97.2185L76.6666 97.2356V98.8925C76.6666 99.0761 76.7419 99.2427 76.8624 99.3644C76.9851 99.484 77.1529 99.5587 77.338 99.5587C77.5209 99.5587 77.6888 99.484 77.8114 99.3623C77.9341 99.2406 78.0094 99.074 78.0094 98.8925L78.0072 97.2185ZM76.6666 74.3842L78.0072 74.3991V52.5788C78.0072 52.3952 77.9319 52.2286 77.8114 52.1069C77.6888 51.9873 77.5231 51.9126 77.338 51.9126C77.1529 51.9126 76.9851 51.9873 76.8624 52.1069C76.7419 52.2286 76.6666 52.3952 76.6666 52.5788L76.6666 74.3842ZM76.1932 75.7208C76.1308 75.7401 76.0662 75.7486 75.9995 75.7486H75.9737C75.6552 75.7977 75.3389 75.8895 75.0269 76.0219C74.5406 76.2269 74.0542 76.5322 73.5722 76.9422C72.9848 77.4419 72.3156 77.8177 71.5645 78.0675C70.8308 78.3131 70.0216 78.4348 69.1373 78.4369H66.0429V93.0953L69.1566 93.1231C69.7892 93.1465 70.4241 93.2811 71.061 93.5288C71.6786 93.7679 72.3026 94.116 72.9331 94.5729C72.9611 94.5922 72.9869 94.6156 73.0106 94.6391C73.3957 95.0171 73.8498 95.3139 74.3706 95.5253C74.6654 95.6448 74.986 95.7388 75.3303 95.8071V81.9064C74.7902 82.2331 74.0327 82.4744 72.8298 82.4316C72.4618 82.4188 72.1735 82.1113 72.1885 81.7462C72.2014 81.3811 72.5113 81.095 72.8771 81.1099C74.3512 81.1633 74.8784 80.6316 75.2851 80.2195C75.3668 80.1362 75.4443 80.0593 75.5239 79.9846C75.5347 79.9739 75.5455 79.9654 75.5562 79.9547C75.8962 79.6408 76.2491 79.4209 76.8667 79.4615C77.2002 79.4828 77.5144 79.6024 77.7748 79.7924C78.0222 79.9739 78.2202 80.2216 78.3428 80.512C78.3816 80.5953 78.4031 80.6892 78.4031 80.7896V85.2715C78.4031 85.7626 78.6054 86.2089 78.9324 86.5356C79.2595 86.8601 79.7114 87.0609 80.2063 87.0609C80.7013 87.0609 81.151 86.8601 81.4803 86.5356H81.4824C81.5405 86.4779 81.5943 86.416 81.6438 86.352C81.6589 86.3285 81.6761 86.305 81.6933 86.2858C81.8934 85.9975 82.0096 85.6494 82.0096 85.2736V76.6364C82.0096 76.4079 81.9192 76.1965 81.7751 76.0406L81.7492 76.0171C81.5878 75.857 81.3662 75.7588 81.1231 75.7588H80.6647C80.641 75.7588 80.6195 75.7566 80.598 75.7545L78.7302 75.7332C78.713 75.7353 78.6936 75.7353 78.6764 75.7353C78.6527 75.7353 78.6312 75.7332 78.6075 75.731L76.4621 75.7054C76.3718 75.7054 76.2814 75.7123 76.1932 75.7208ZM78.4591 95.8903C78.5022 95.8754 78.5474 95.8647 78.5947 95.8583C78.231 95.3501 78.0158 94.7288 78.0158 94.0625C78.0158 93.2042 78.3687 92.4248 78.9369 91.8611L78.9777 91.8227C79.0574 91.7479 79.1391 91.6753 79.2252 91.6091C79.1241 91.5301 79.0272 91.4469 78.9368 91.3572L78.9347 91.3593C78.3666 90.7956 78.0137 90.0162 78.0137 89.1579C78.0137 88.7799 78.0847 88.4126 78.2138 88.071L78.216 88.0689C78.2525 87.9706 78.2956 87.8724 78.3408 87.7785C78.2138 87.6867 78.0955 87.5842 77.9836 87.4731C77.4155 86.9073 77.0604 86.1301 77.0604 85.2717V80.9414C77.0367 80.9072 77.0066 80.8773 76.9743 80.8538C76.9184 80.8132 76.8474 80.7855 76.772 80.7812C76.7355 80.7791 76.6989 80.7855 76.6623 80.7983V95.9115L78.4591 95.8903ZM64.7043 93.7487V76.8802L58.4143 76.8824V94.5177H64.7043V93.7487ZM79.5631 88.3229C79.5265 88.3913 79.4942 88.4617 79.4663 88.5343C79.3931 88.7244 79.3544 88.9336 79.3544 89.1578C79.3544 89.6489 79.5566 90.0952 79.8859 90.4219V90.424C80.2108 90.7464 80.6627 90.9472 81.1598 90.9472H86.7953C87.2902 90.9472 87.7399 90.7464 88.0692 90.4219C88.3963 90.0973 88.5985 89.6489 88.5985 89.1578C88.5985 88.6667 88.3963 88.2183 88.0692 87.8937C87.7421 87.5692 87.2923 87.3685 86.7953 87.3685H82.5238C82.4915 87.4048 82.4571 87.4389 82.4227 87.4731L82.4248 87.4752C81.8568 88.0389 81.0713 88.3891 80.2063 88.3891C79.9868 88.3891 79.7718 88.3656 79.5631 88.3229ZM83.2492 86.0424H88.2631C88.758 86.0424 89.2078 85.8417 89.537 85.515C89.8641 85.1905 90.0664 84.7442 90.0664 84.251C90.0664 83.7599 89.8641 83.3136 89.537 82.9869C89.2099 82.6623 88.758 82.4616 88.2631 82.4616H83.3461V85.2716C83.3461 85.5385 83.3138 85.7947 83.2492 86.0424ZM83.3461 81.1356H85.9993C86.4943 81.1356 86.9462 80.9349 87.2732 80.6103C87.6003 80.2857 87.8047 79.8373 87.8047 79.3462C87.8047 78.8551 87.6025 78.4089 87.2732 78.0822C86.9461 77.7576 86.4964 77.5569 85.9993 77.5569H83.3461V81.1356ZM85.868 94.0644C85.868 93.5733 85.6658 93.1271 85.3387 92.8004C85.0116 92.4758 84.5597 92.2751 84.0648 92.2751H81.1598C80.6756 92.2751 80.2388 92.4651 79.916 92.7705L79.888 92.8004C79.561 93.1249 79.3565 93.5712 79.3565 94.0644C79.3565 94.5577 79.5588 95.0061 79.8837 95.3285L79.8859 95.3307C80.2108 95.6531 80.6627 95.8538 81.1598 95.8538H84.0648C84.5597 95.8538 85.0094 95.6531 85.3387 95.3264C85.6636 95.004 85.868 94.5555 85.868 94.0644Z" fill="#CF2031"/>
  <defs>
    <filter id="filter0_d_409_54" x="0.366657" y="0.675338" width="159.143" height="159.143" filterUnits="userSpaceOnUse" color-interpolation-filters="sRGB">
      <feFlood flood-opacity="0" result="BackgroundImageFix"/>
      <feColorMatrix in="SourceAlpha" type="matrix" values="0 0 0 0 0 0 0 0 0 0 0 0 0 0 0 0 0 0 127 0" result="hardAlpha"/>
      <feOffset dy="4.51303"/>
      <feGaussianBlur stdDeviation="16.9238"/>
      <feComposite in2="hardAlpha" operator="out"/>
      <feColorMatrix type="matrix" values="0 0 0 0 0.575 0 0 0 0 0.565417 0 0 0 0 0.565417 0 0 0 0.25 0"/>
      <feBlend mode="normal" in2="BackgroundImageFix" result="effect1_dropShadow_409_54"/>
      <feBlend mode="normal" in="SourceGraphic" in2="effect1_dropShadow_409_54" result="shape"/>
    </filter>
  </defs>
</svg>