<svg xmlns="http://www.w3.org/2000/svg" width="21" height="21" viewBox="0 0 21 21" fill="none">
  <mask id="mask0_109_2601" style="mask-type:luminance" maskUnits="userSpaceOnUse" x="0" y="0" width="21" height="21">
    <rect x="0.627441" y="0.782715" width="19.5938" height="19.5938" fill="white"/>
  </mask>
  <g mask="url(#mask0_109_2601)">
    <path fill-rule="evenodd" clip-rule="evenodd" d="M10.4243 2.82373C6.14088 2.82373 2.66847 6.29613 2.66846 10.5796C2.66845 14.863 6.14084 18.3354 10.4243 18.3354C14.7077 18.3355 18.1801 14.8631 18.1802 10.5796C18.1802 6.29619 14.7078 2.82376 10.4244 2.82373H10.4243Z" fill="#039BE5"/>
    <path fill-rule="evenodd" clip-rule="evenodd" d="M11.4747 12.6352H13.4818L13.7969 10.5963H11.4743V9.48187C11.4743 8.63484 11.751 7.88375 12.5434 7.88375H13.8165V6.10439C13.5928 6.07419 13.1197 6.00806 12.2258 6.00806C10.3591 6.00806 9.26467 6.99387 9.26467 9.2398V10.5963H7.3457V12.6352H9.26467V18.2395C9.6447 18.2966 10.0296 18.3354 10.4248 18.3354C10.782 18.3354 11.1306 18.3027 11.4747 18.2562V12.6352Z" fill="white"/>
  </g>
</svg>