<svg xmlns="http://www.w3.org/2000/svg" width="21" height="21" viewBox="0 0 21 21" fill="none">
  <mask id="mask0_109_2593" style="mask-type:luminance" maskUnits="userSpaceOnUse" x="0" y="0" width="21" height="21">
    <rect x="0.627441" y="0.73584" width="19.5938" height="19.5938" fill="white"/>
  </mask>
  <g mask="url(#mask0_109_2593)">
    <path fill-rule="evenodd" clip-rule="evenodd" d="M18.4296 8.93378H17.772V8.8999H10.4243V12.1655H15.0382C14.3651 14.0665 12.5564 15.4312 10.4243 15.4312C7.71915 15.4312 5.52588 13.2379 5.52588 10.5327C5.52588 7.82755 7.71915 5.63428 10.4243 5.63428C11.673 5.63428 12.809 6.10534 13.674 6.87481L15.9832 4.5656C14.5251 3.20669 12.5747 2.36865 10.4243 2.36865C5.91571 2.36865 2.26025 6.02411 2.26025 10.5327C2.26025 15.0413 5.91571 18.6968 10.4243 18.6968C14.9329 18.6968 18.5884 15.0413 18.5884 10.5327C18.5884 9.98531 18.532 9.45098 18.4296 8.93378Z" fill="#FFC107"/>
    <path fill-rule="evenodd" clip-rule="evenodd" d="M3.20215 6.73275L5.88445 8.69988C6.61024 6.90297 8.36796 5.63428 10.4249 5.63428C11.6736 5.63428 12.8096 6.10534 13.6746 6.87481L15.9838 4.5656C14.5257 3.20669 12.5753 2.36865 10.4249 2.36865C7.28908 2.36865 4.56963 4.13903 3.20215 6.73275Z" fill="#FF3D00"/>
    <path fill-rule="evenodd" clip-rule="evenodd" d="M10.4243 18.6967C12.5331 18.6967 14.4492 17.8897 15.8979 16.5773L13.3711 14.4391C12.5515 15.06 11.5326 15.4311 10.4243 15.4311C8.30083 15.4311 6.4978 14.0771 5.81855 12.1875L3.15625 14.2387C4.5074 16.8827 7.25134 18.6967 10.4243 18.6967Z" fill="#4CAF50"/>
    <path fill-rule="evenodd" clip-rule="evenodd" d="M18.4296 8.93378H17.772V8.8999H10.4243V12.1655H15.0382C14.7149 13.0787 14.1275 13.8661 13.3699 14.4396C13.3703 14.4392 13.3707 14.4392 13.3711 14.4388L15.8979 16.577C15.7191 16.7394 18.5884 14.6147 18.5884 10.5327C18.5884 9.98531 18.532 9.45098 18.4296 8.93378Z" fill="#1976D2"/>
  </g>
</svg>