<svg xmlns="http://www.w3.org/2000/svg" width="16" height="21" viewBox="0 0 16 21" fill="none">
  <mask id="mask0_109_2609" style="mask-type:luminance" maskUnits="userSpaceOnUse" x="0" y="0" width="16" height="21">
    <rect x="0.627441" y="0.82959" width="14.6953" height="19.5938" fill="white"/>
  </mask>
  <g mask="url(#mask0_109_2609)">
    <path fill-rule="evenodd" clip-rule="evenodd" d="M12.824 11.1125C12.8164 9.70799 13.4516 8.64793 14.7375 7.86724C14.018 6.83781 12.9312 6.27143 11.4961 6.16045C10.1375 6.05329 8.6527 6.95261 8.10928 6.95261C7.53525 6.95261 6.21879 6.19871 5.18553 6.19871C3.05012 6.23316 0.780762 7.90169 0.780762 11.2962C0.780762 12.2988 0.964453 13.3346 1.33184 14.4036C1.82168 15.8081 3.58971 19.2523 5.43428 19.1949C6.39866 19.1719 7.07985 18.5099 8.33507 18.5099C9.55203 18.5099 10.1835 19.1949 11.2588 19.1949C13.1187 19.1681 14.7183 16.0377 15.1852 14.6294C12.6901 13.4545 12.824 11.1852 12.824 11.1125L12.824 11.1125ZM10.658 4.8287C11.7027 3.58879 11.6071 2.45985 11.5764 2.0542C10.6542 2.10778 9.58646 2.68181 8.97798 3.38979C8.30827 4.14752 7.9141 5.08511 7.99829 6.14133C8.99711 6.21787 9.90792 5.70507 10.658 4.8287Z" fill="black"/>
  </g>
</svg>