<svg width="100%" height="100%" viewBox="0 0 202 61" fill="none" xmlns="http://www.w3.org/2000/svg">
<g id="Group 47">
<path id="Vector" d="M24.6179 9.71483C24.795 8.61631 24.469 7.54089 23.4372 6.4706C21.964 4.93062 22.3053 2.48461 23.8966 1.0242C25.4058 -0.356655 27.9853 -0.338689 29.4406 1.0627C31.0139 2.57958 31.286 5.15648 29.6972 6.65797C28.0084 8.26725 28.8964 10.1383 28.7039 11.9016C28.6526 12.3713 29.0966 12.3867 29.4534 12.4534C33.8424 13.2594 37.5306 15.2767 40.3514 18.7853C40.5464 19.042 40.7569 19.522 41.1727 19.214C42.628 18.1334 44.766 18.0102 45.3358 15.6823C45.8671 13.4852 48.3362 12.4509 50.4511 13.2029C51.4423 13.5419 52.2642 14.2509 52.7449 15.1817C53.2256 16.1125 53.3279 17.1931 53.0305 18.1976C52.376 20.3304 50.1585 21.624 48.0282 20.8848C46.424 20.3279 45.6669 21.6728 44.499 22.0758C43.1593 22.5378 43.0181 23.3129 43.4724 24.6244C44.8122 28.3743 44.6813 32.178 43.3389 35.9176C43.0155 36.8211 43.1131 37.3113 43.9934 37.6912C44.4937 37.9354 44.975 38.2169 45.4333 38.533C46.3342 39.0926 47.1042 39.4699 48.3362 39.0079C50.2329 38.2969 52.4685 39.8882 53.0588 42.016C53.6157 44.0282 52.4762 46.1021 50.41 46.8258C48.3439 47.5496 45.8876 46.5923 45.3845 44.4697C44.8301 42.134 42.7435 41.9467 41.2779 40.8764C40.7646 40.5042 40.5541 41.0252 40.3206 41.3024C37.6211 44.5718 33.8462 46.7736 29.6716 47.5137C28.9016 47.6626 28.5833 48.0014 28.6295 48.8227C28.7219 50.5372 28.437 52.1722 29.9128 53.6993C31.4657 55.2983 30.8317 57.8932 28.994 59.3023C28.1973 59.9019 27.2037 60.179 26.2117 60.0781C25.2197 59.9773 24.3022 59.5059 23.6425 58.7581C22.9011 57.9769 22.4977 56.9348 22.5198 55.858C22.5419 54.7812 22.9878 53.7565 23.7606 53.0063C24.4177 52.339 24.9823 48.643 24.5306 47.9192C24.2739 47.5188 23.8094 47.5856 23.4449 47.5111C19.2818 46.6718 15.7732 44.7161 13.0577 41.4308C12.5444 40.8019 12.126 40.6608 11.4484 41.1536C10.9535 41.5055 10.4237 41.8057 9.8674 42.0493C9.39071 42.2468 8.9674 42.554 8.63199 42.9461C8.29658 43.3381 8.05854 43.8039 7.93728 44.3054C7.28535 46.5615 5.02671 47.5933 2.87844 46.8515C0.673696 46.0815 -0.427391 43.9409 0.281001 41.785C1.01249 39.5571 3.25573 38.3431 5.45021 39.1798C6.57183 39.6059 7.16473 38.8847 7.89622 38.474C10.1626 37.1907 10.1369 37.1753 9.4824 34.7318C8.53018 31.1617 8.62001 27.6223 9.93669 24.1547C10.2575 23.3129 10.2267 22.7816 9.313 22.3915C8.62147 22.0768 7.96577 21.6887 7.35722 21.2339C6.64113 20.7206 5.97637 20.6641 5.11142 20.9336C3.05811 21.5753 0.868763 20.3022 0.250203 18.2361C-0.0636783 17.2106 0.0411679 16.1025 0.541832 15.1541C1.0425 14.2057 1.89826 13.494 2.92207 13.1747C5.01388 12.5048 7.39572 13.5314 7.89878 15.672C8.45061 18.0128 10.5989 18.1385 12.067 19.196C12.5983 19.581 12.837 18.8752 13.0783 18.5774C15.6278 15.4452 19.219 13.3344 23.1959 12.6305C24.3227 12.4201 24.7924 12.0351 24.6102 10.9058C24.5859 10.5091 24.5884 10.1112 24.6179 9.71483ZM10.2986 29.8373C10.2986 39.031 17.6623 46.4794 26.6943 46.4203C35.5517 46.3639 42.9462 39.013 43.0386 30.1735C43.131 21.2031 35.6852 13.6598 26.7174 13.6367C17.7008 13.611 10.2986 20.9182 10.2986 29.8373ZM4.19255 14.3065C3.48023 14.3138 2.79895 14.5992 2.29404 15.1017C1.78913 15.6042 1.50056 16.2841 1.48989 16.9964C1.45652 18.5672 2.51654 19.6965 4.05652 19.7401C4.42219 19.7575 4.78757 19.7004 5.13047 19.5722C5.47336 19.444 5.7866 19.2474 6.05116 18.9944C6.31571 18.7413 6.52605 18.4371 6.66939 18.1003C6.81273 17.7634 6.88607 17.401 6.88496 17.0349C6.8583 16.3259 6.56712 15.6526 6.06879 15.1477C5.57046 14.6427 4.9011 14.3426 4.19255 14.3065ZM23.9685 55.981C23.9568 56.3332 24.0173 56.684 24.1462 57.012C24.2751 57.3399 24.4696 57.6381 24.7179 57.8881C24.9662 58.138 25.2631 58.3346 25.5901 58.4657C25.9172 58.5968 26.2676 58.6596 26.6198 58.6503C27.3299 58.6543 28.0138 58.3825 28.5275 57.8923C29.0412 57.402 29.3446 56.7316 29.3738 56.0221C29.3918 54.5232 28.0623 53.1808 26.5967 53.2219C25.8855 53.2486 25.2128 53.552 24.7219 54.0673C24.2309 54.5827 23.9606 55.2693 23.9685 55.981ZM51.8165 17.0092C51.794 16.2982 51.5015 15.6224 50.9985 15.1194C50.4955 14.6164 49.8197 14.3239 49.1087 14.3014C47.6355 14.3014 46.4035 15.6361 46.4471 17.1863C46.4882 18.6955 47.6611 19.7786 49.2063 19.753C49.5597 19.7505 49.9091 19.6769 50.2334 19.5364C50.5578 19.396 50.8506 19.1916 51.0942 18.9355C51.3378 18.6794 51.5274 18.3769 51.6515 18.0459C51.7756 17.7149 51.8317 17.3624 51.8165 17.0092ZM1.47962 42.8732C1.4567 43.2247 1.50499 43.5772 1.62162 43.9095C1.73826 44.2419 1.92082 44.5472 2.15835 44.8073C2.39588 45.0674 2.6835 45.2768 3.00394 45.4229C3.32439 45.5691 3.67105 45.6491 4.02316 45.658C4.38436 45.6854 4.74737 45.6395 5.0904 45.5231C5.43343 45.4067 5.74943 45.2223 6.01943 44.9808C6.28943 44.7393 6.50787 44.4458 6.66166 44.1178C6.81544 43.7899 6.9014 43.4342 6.91438 43.0722C6.92735 42.7102 6.86707 42.3493 6.73715 42.0112C6.60724 41.673 6.41036 41.3646 6.15833 41.1044C5.90631 40.8442 5.60433 40.6376 5.27051 40.497C4.93668 40.3564 4.57789 40.2846 4.21565 40.2861C3.86411 40.268 3.51256 40.3214 3.18226 40.4432C2.85197 40.5649 2.5498 40.7523 2.29404 40.9942C2.03827 41.236 1.83422 41.5273 1.69423 41.8502C1.55425 42.1732 1.48124 42.5212 1.47962 42.8732ZM23.9634 4.06566C23.9516 4.42073 24.0128 4.77444 24.1433 5.10488C24.2738 5.43531 24.4708 5.73543 24.722 5.98664C24.9732 6.23785 25.2733 6.4348 25.6037 6.56529C25.9342 6.69578 26.2879 6.75702 26.6429 6.74523C28.1111 6.74523 29.3892 5.48245 29.3713 4.05796C29.3463 3.34507 29.0479 2.66914 28.5381 2.17026C28.0282 1.67139 27.3459 1.38784 26.6327 1.37839C26.2788 1.37169 25.9272 1.43675 25.5991 1.56966C25.271 1.70256 24.9733 1.90055 24.7238 2.15168C24.4744 2.40282 24.2784 2.70188 24.1477 3.03083C24.017 3.35979 23.9543 3.71181 23.9634 4.06566ZM49.1395 45.6632C49.4934 45.6603 49.8433 45.5877 50.1692 45.4497C50.4951 45.3116 50.7905 45.1107 51.0388 44.8584C51.287 44.6061 51.4831 44.3074 51.6159 43.9794C51.7487 43.6513 51.8155 43.3003 51.8127 42.9464C51.8098 42.5925 51.7373 42.2426 51.5992 41.9167C51.4611 41.5908 51.2602 41.2954 51.0079 41.0471C50.7556 40.7989 50.4569 40.6028 50.1289 40.47C49.8008 40.3372 49.4498 40.2704 49.0959 40.2732C48.7406 40.2695 48.3882 40.3379 48.0601 40.4744C47.732 40.6109 47.435 40.8125 47.1871 41.0671C46.9392 41.3217 46.7456 41.624 46.618 41.9556C46.4903 42.2872 46.4313 42.6413 46.4445 42.9964C46.4337 43.352 46.4962 43.706 46.6281 44.0363C46.7601 44.3666 46.9587 44.6662 47.2115 44.9165C47.4644 45.1667 47.7661 45.3621 48.0978 45.4906C48.4295 45.619 48.7841 45.6778 49.1395 45.6632ZM27.3513 49.8519V48.643C27.3513 48.1785 27.3796 47.7216 26.684 47.7242C26.0526 47.7242 25.9294 48.0886 25.9346 48.5994C25.9346 49.4566 25.9346 50.3113 25.9346 51.166C25.9346 51.6563 26.1194 51.8924 26.6404 51.9027C27.1614 51.9129 27.3744 51.7204 27.3513 51.2071C27.3334 50.7579 27.3488 50.3036 27.3513 49.8519ZM27.3513 10.1845V9.1322C27.3513 8.61888 27.4155 8.12095 26.6224 8.15432C25.8293 8.18768 25.9397 8.72154 25.932 9.20407C25.932 9.856 25.932 10.5079 25.932 11.1598C25.932 11.6732 25.8781 12.2122 26.625 12.243C27.5336 12.2789 27.3205 11.5987 27.3488 11.0854C27.3667 10.7877 27.3513 10.4848 27.3513 10.1845ZM11.4382 39.2825C11.1815 38.8924 11.1096 38.2276 10.3807 38.6357C9.54657 39.1028 8.72781 39.5982 7.89108 40.0576C7.49325 40.2732 7.41369 40.5145 7.65239 40.9072C7.89108 41.2999 8.16571 41.4616 8.62771 41.1792C9.3977 40.7044 10.1959 40.2732 10.9813 39.8241C11.202 39.7009 11.4407 39.5956 11.4459 39.2825H11.4382ZM8.33511 18.6775C7.80895 18.6185 7.82178 19.0343 7.63442 19.2268C7.34439 19.5348 7.53175 19.7581 7.82178 19.9249C8.68931 20.4228 9.56196 20.9079 10.4244 21.411C10.4824 21.4585 10.5507 21.492 10.6239 21.5088C10.697 21.5257 10.7731 21.5254 10.8461 21.508C10.9192 21.4906 10.9872 21.4566 11.0449 21.4086C11.1026 21.3606 11.1485 21.3 11.1789 21.2313C11.3098 20.9978 11.6794 20.6872 11.3355 20.4613C10.3345 19.8094 9.27194 19.2345 8.33511 18.6775ZM42.6049 38.4406C42.4536 38.4878 42.3149 38.5683 42.1989 38.6763C42.083 38.7842 41.9928 38.9168 41.935 39.0643C41.7425 39.4262 41.935 39.6162 42.2353 39.7779C43.0643 40.2501 43.8959 40.7198 44.7223 41.1972C45.1073 41.4205 45.3922 41.3332 45.5822 40.9405C45.6797 40.7352 45.9826 40.4811 45.6848 40.2912C44.6736 39.6598 43.6289 39.0643 42.6049 38.4535V38.4406ZM45.9184 19.5374C45.4821 19.2088 45.5385 18.3079 44.6761 18.8264C43.9061 19.291 43.1131 19.7401 42.32 20.1739C41.8734 20.4305 41.7758 20.7154 42.0505 21.1543C42.3251 21.5932 42.6459 21.5342 43.0489 21.2827C43.7752 20.8309 44.5375 20.4434 45.2767 20.0147C45.4986 19.8712 45.7128 19.7162 45.9184 19.5502V19.5374Z" fill="#D6D6D6"/>
<path id="Vector_2" d="M0.00660156 30.1427C-0.0102031 27.7547 0.299812 25.3756 0.928024 23.0716C1.05379 22.5814 1.16159 21.9731 1.84175 22.122C2.64254 22.2965 2.39614 22.892 2.25241 23.4592C1.09359 27.7638 1.09359 32.2983 2.25241 36.603C2.40897 37.183 2.57838 37.7631 1.80839 37.9299C1.09486 38.0865 1.05122 37.432 0.930593 36.9623C0.353099 34.6574 -0.0575644 32.3295 0.00660156 30.1427Z" fill="#D6D6D6"/>
<path id="Vector_3" d="M53.2183 30.0323C53.303 32.4295 52.8923 34.7626 52.3097 37.0777C52.1916 37.5397 52.1069 38.0402 51.4909 37.9375C50.7851 37.8169 50.8647 37.301 51.0058 36.7646C52.2006 32.3498 52.2006 27.6968 51.0058 23.282C50.8801 22.8072 50.7671 22.3221 51.3446 22.145C52.0145 21.9448 52.1788 22.4556 52.3251 22.9869C52.9737 25.2774 53.2748 27.6524 53.2183 30.0323Z" fill="#D6D6D6"/>
<path id="Vector_4" d="M21.1914 55.3239C20.9681 55.9964 20.4882 55.9271 19.962 55.7885C15.3809 54.6124 11.2008 52.2249 7.86032 48.8766C7.47276 48.4916 6.885 48.0347 7.44196 47.4931C7.99892 46.9516 8.44551 47.5393 8.83564 47.9243C11.7003 50.8076 15.224 52.95 19.1022 54.1664C19.5847 54.3153 20.0724 54.441 20.5549 54.5873C20.9194 54.7003 21.1837 54.9056 21.1914 55.3239Z" fill="#D6D6D6"/>
<path id="Vector_5" d="M21.1864 4.75097C21.1454 5.20783 20.8091 5.37979 20.3908 5.48759C15.7888 6.67338 11.8747 9.04752 8.51494 12.3739C8.21208 12.6742 7.81939 12.936 7.45492 12.61C7.034 12.2353 7.22649 11.7861 7.58069 11.4242C10.9987 7.89433 15.3453 5.40295 20.1187 4.23764C20.7501 4.07081 21.1505 4.31464 21.1864 4.75097Z" fill="#D6D6D6"/>
<path id="Vector_6" d="M33.0008 4.20158C36.5196 5.02606 39.8226 6.59047 42.6898 8.79072C43.6472 9.52478 44.5352 10.3564 45.4156 11.1828C45.7852 11.5268 46.4679 11.922 45.8801 12.5252C45.2924 13.1283 44.8945 12.4944 44.5121 12.1274C42.2082 9.86374 39.5122 8.03745 36.5555 6.73741C35.3595 6.22409 34.0941 5.86989 32.8493 5.47719C32.4079 5.3386 32.0793 5.13326 32.1589 4.65074C32.2308 4.09891 32.6671 4.12971 33.0008 4.20158Z" fill="#D6D6D6"/>
<path id="Vector_7" d="M46.0878 48.009C45.9582 48.2447 45.8061 48.4674 45.6335 48.6738C42.2127 52.1535 37.9025 54.6278 33.1725 55.827C32.7747 55.9322 32.3255 55.9964 32.1741 55.4574C32.0124 54.8645 32.4307 54.6361 32.8979 54.5206C37.487 53.3861 41.3447 50.9837 44.7044 47.719C44.9611 47.4623 45.2383 47.2236 45.6361 47.3442C45.8928 47.4238 46.0339 47.6343 46.0878 48.009Z" fill="#D6D6D6"/>
<path id="Vector_8" d="M13.0297 29.9348C12.9707 22.566 19.0793 16.4214 26.5071 16.3804C34.0736 16.3367 40.1617 22.3478 40.3003 30.0015C40.4337 37.2548 34.0736 43.6406 26.6714 43.6868C19.1871 43.7279 13.0913 37.5885 13.0297 29.9348ZM22.0386 33.8746C21.5664 33.1713 21.1249 32.6143 20.7938 31.9984C19.2923 29.193 20.0597 25.7229 22.5904 23.6799C24.9235 21.8037 28.5296 21.8832 30.8576 23.8364C33.532 26.0925 33.9529 29.8552 31.7764 32.9762C31.2477 33.7334 31.2862 33.9849 32.1204 34.3494C33.3427 34.8531 34.4288 35.6384 35.2902 36.6414C36.1012 37.6347 36.4785 37.4371 37.0637 36.4643C40.2053 31.2489 39.2351 24.7527 34.6767 20.7796C32.4593 18.8623 29.6318 17.797 26.7005 17.7744C23.7692 17.7518 20.9256 18.7735 18.6789 20.6564C13.9665 24.5885 12.9322 31.6929 16.3253 36.6902C16.718 37.2677 16.9926 37.6783 17.6548 36.9289C18.8483 35.5814 20.378 34.6856 22.0386 33.8746ZM26.5739 42.2495C29.6538 42.2495 32.0973 41.3692 34.302 39.6675C35.2876 38.8975 35.2594 38.3277 34.3816 37.5731C33.1496 36.5156 31.8637 35.5737 30.2929 35.0424C28.5502 34.4546 28.5168 34.1364 29.9285 32.9352C32.1948 31.0076 32.5285 27.8635 30.6985 25.6305C29.3561 23.9956 27.6057 23.3488 25.5652 23.7877C23.4682 24.2394 22.0925 25.5612 21.5818 27.689C21.071 29.8167 21.6485 31.5672 23.3425 32.9608C24.7567 34.1287 24.7105 34.4623 22.96 35.0604C21.3405 35.6147 20.0084 36.567 18.7764 37.7143C18.0295 38.4073 17.9833 38.9077 18.8842 39.5802C21.1737 41.2973 23.6453 42.3932 26.5739 42.2495Z" fill="#D6D6D6"/>
<g id="Group 48">
<path id="Vector_9" d="M77.3742 50.0676V50.3176H77.6242H86.0145H86.2645V50.0676V20.0775H101.712H101.962V19.8275V12.6409V12.3909H101.712H61.9292H61.6792V12.6409V19.8275V20.0775H61.9292H77.3742V50.0676Z" fill="#CF2031" stroke="#CF2031" stroke-width="0.5"/>
<path id="Vector_10" d="M157.171 50.0675V50.3175H157.421H165.11H165.36V50.0675V15.2177C165.36 13.9569 164.827 13.0292 163.948 12.4266C163.082 11.8326 161.902 11.5669 160.611 11.5669C159.621 11.5669 158.878 11.7065 158.257 12.0178C157.635 12.3294 157.158 12.8008 156.681 13.4199L156.68 13.4212L135.577 41.2012L114.646 13.4241C114.646 13.4237 114.646 13.4234 114.645 13.423C114.161 12.7671 113.637 12.296 112.964 11.9932C112.296 11.6921 111.502 11.5669 110.495 11.5669C109.177 11.5669 107.995 11.8322 107.136 12.4272C106.263 13.0311 105.746 13.9596 105.746 15.2177V50.0675V50.3175H105.996H113.567H113.817V50.0675V26.1672L131.592 49.4492L131.592 49.4492L131.595 49.4538C132.529 50.6201 133.763 51.1388 135.468 51.1388C137.174 51.1388 138.405 50.62 139.339 49.4538L139.339 49.4538L139.342 49.4495L157.171 26.1655V50.0675Z" fill="#CF2031" stroke="#CF2031" stroke-width="0.5"/>
<path id="Vector_11" d="M164.99 50.3175H165.24V50.0675V24.0301L192.099 49.3128C192.1 49.3132 192.1 49.3136 192.101 49.314C193.463 50.633 195.009 51.1414 196.826 51.1414C198.089 51.1414 199.195 50.89 199.991 50.288C200.799 49.6768 201.25 48.7322 201.25 47.4341V12.6382V12.3882H201H193.089H192.839V12.6382V39.1074L165.769 13.0095C164.897 12.1305 163.614 11.5669 161.697 11.5669C160.351 11.5669 159.18 11.8461 158.34 12.4579C157.487 13.0782 157.001 14.0208 157.001 15.2742V50.0675V50.3175H157.251H164.99Z" fill="#CF2031" stroke="#CF2031" stroke-width="0.5"/>
</g>
</g>
</svg>
