<svg xmlns="http://www.w3.org/2000/svg" width="160" height="160" viewBox="0 0 160 160" fill="none">
  <g filter="url(#filter0_d_409_55)">
    <path d="M33.9232 75.9196C33.9232 101.172 54.3945 121.644 79.6471 121.644C104.9 121.644 125.371 101.172 125.371 75.9196C125.371 50.667 104.9 30.1957 79.6471 30.1957C54.3945 30.1957 33.9232 50.667 33.9232 75.9196Z" fill="white"/>
  </g>
  <path d="M79.6471 58.438C80.4402 58.4381 81.2156 58.2005 81.8751 57.7552C82.5346 57.3099 83.0487 56.6769 83.3523 55.9363C83.6559 55.1957 83.7354 54.3807 83.5808 53.5944C83.4261 52.8081 83.0442 52.0858 82.4834 51.5189C81.9227 50.952 81.2082 50.5659 80.4303 50.4095C79.6524 50.253 78.8461 50.3333 78.1133 50.64C77.3805 50.9468 76.7542 51.4663 76.3136 52.1329C75.8729 52.7994 75.6377 53.5831 75.6377 54.3848C75.6389 55.4593 76.0617 56.4895 76.8133 57.2493C77.5649 58.0092 78.5841 58.4366 79.6471 58.438ZM79.6471 51.6348C80.1854 51.6347 80.7116 51.7959 81.1592 52.0981C81.6068 52.4003 81.9557 52.8299 82.1617 53.3325C82.3678 53.8351 82.4217 54.3882 82.3167 54.9219C82.2118 55.4555 81.9526 55.9456 81.572 56.3304C81.1913 56.7151 80.7064 56.9771 80.1785 57.0832C79.6505 57.1893 79.1033 57.1348 78.6061 56.9265C78.1088 56.7182 77.6838 56.3656 77.3848 55.9132C77.0858 55.4607 76.9263 54.9288 76.9265 54.3848C76.9275 53.6557 77.2144 52.9569 77.7244 52.4414C78.2344 51.9259 78.9258 51.6358 79.6471 51.6348ZM96.6882 56.5792H89.8863C88.8736 56.5827 87.8892 56.9169 87.0797 57.5319C86.2702 58.1469 85.679 59.0099 85.3942 59.9921C84.6823 59.5717 83.8726 59.3503 83.0481 59.3506H76.2461C75.4414 59.3501 74.6502 59.5607 73.9501 59.9618C73.6997 58.9349 73.1164 58.0222 72.2932 57.3693C71.47 56.7164 70.4543 56.3608 69.408 56.3592H62.606C61.3657 56.3607 60.1767 56.8595 59.2997 57.746C58.4228 58.6325 57.9295 59.8344 57.9282 61.0881V68.3463C57.9283 68.7248 58.0228 69.0971 58.2028 69.4289C58.3829 69.7607 58.6427 70.0413 58.9584 70.2448C59.2741 70.4483 59.6354 70.5682 60.009 70.5933C60.3826 70.6184 60.7564 70.5479 61.096 70.3884V78.8254C61.0959 79.4024 61.2717 79.9654 61.5995 80.4377C61.9274 80.91 62.3912 81.2688 62.928 81.4651C63.4648 81.6614 64.0483 81.6858 64.5993 81.5349C65.1502 81.3839 65.6418 81.0651 66.007 80.6216C66.3722 81.0651 66.8638 81.3839 67.4147 81.5349C67.9657 81.6858 68.5492 81.6614 69.086 81.4651C69.6228 81.2688 70.0866 80.91 70.4144 80.4377C70.7423 79.9654 70.9181 79.4024 70.918 78.8254V70.3884C71.124 70.4847 71.3433 70.5486 71.5683 70.578V71.3365C71.5681 71.715 71.6623 72.0876 71.8423 72.4196C72.0223 72.7516 72.2822 73.0323 72.598 73.2359C72.9137 73.4395 73.2752 73.5593 73.6489 73.5842C74.0226 73.6091 74.3966 73.5384 74.7361 73.3786V81.8143C74.7359 82.3913 74.9116 82.9544 75.2394 83.4268C75.5672 83.8993 76.031 84.2581 76.5678 84.4545C77.1046 84.6509 77.6882 84.6753 78.2392 84.5244C78.7902 84.3735 79.2818 84.0546 79.6471 83.6111C80.0124 84.0546 80.504 84.3735 81.055 84.5244C81.606 84.6753 82.1896 84.6509 82.7264 84.4545C83.2632 84.2581 83.7271 83.8993 84.0548 83.4268C84.3826 82.9544 84.5583 82.3913 84.5581 81.8143V73.3773C84.8977 73.5371 85.2716 73.6079 85.6453 73.5829C86.019 73.558 86.3805 73.4382 86.6963 73.2346C87.012 73.0311 87.2719 72.7503 87.4519 72.4183C87.6319 72.0863 87.7261 71.7138 87.7259 71.3352V70.798C87.951 70.7688 88.1703 70.7049 88.3762 70.6084V79.0447C88.376 79.6218 88.5518 80.1848 88.8797 80.6572C89.2076 81.1296 89.6715 81.4883 90.2084 81.6845C90.7453 81.8808 91.3289 81.9049 91.8798 81.7537C92.4308 81.6026 92.9222 81.2834 93.2872 80.8397C93.6524 81.2833 94.144 81.6025 94.695 81.7535C95.2461 81.9046 95.8298 81.8803 96.3667 81.684C96.9036 81.4876 97.3676 81.1287 97.6955 80.6562C98.0233 80.1837 98.1991 79.6206 98.1989 79.0435V70.6077C98.5384 70.7673 98.9122 70.8377 99.2858 70.8127C99.6593 70.7876 100.021 70.6677 100.336 70.4642C100.652 70.2607 100.912 69.9801 101.092 69.6482C101.272 69.3164 101.366 68.9441 101.366 68.5656V61.3099C101.365 60.0559 100.872 58.8535 99.9951 57.9666C99.1181 57.0797 97.9288 56.5807 96.6882 56.5792ZM70.918 68.3463V63.2269C70.9207 63.1396 70.906 63.0527 70.8749 62.9713C70.8437 62.89 70.7967 62.8157 70.7366 62.753C70.6765 62.6904 70.6045 62.6406 70.525 62.6065C70.4455 62.5725 70.36 62.555 70.2737 62.555C70.1873 62.555 70.1018 62.5725 70.0223 62.6065C69.9428 62.6406 69.8709 62.6904 69.8108 62.753C69.7507 62.8157 69.7036 62.89 69.6725 62.9713C69.6413 63.0527 69.6266 63.1396 69.6293 63.2269V78.8254C69.6213 79.2193 69.4609 79.5943 69.1825 79.87C68.9041 80.1456 68.5299 80.3001 68.1402 80.3001C67.7504 80.3001 67.3762 80.1456 67.0978 79.87C66.8194 79.5943 66.659 79.2193 66.651 78.8254V72.3028C66.6458 72.1336 66.5757 71.9731 66.4554 71.8552C66.3351 71.7374 66.1742 71.6715 66.0067 71.6715C65.8392 71.6715 65.6782 71.7374 65.558 71.8552C65.4377 71.9731 65.3675 72.1336 65.3623 72.3028V78.8254C65.3623 79.2245 65.2055 79.6073 64.9263 79.8895C64.647 80.1717 64.2684 80.3303 63.8735 80.3303C63.4786 80.3303 63.0999 80.1717 62.8207 79.8895C62.5415 79.6073 62.3847 79.2245 62.3847 78.8254V63.225C62.3874 63.1377 62.3727 63.0508 62.3415 62.9695C62.3103 62.8881 62.2633 62.8138 62.2032 62.7512C62.1431 62.6885 62.0712 62.6387 61.9917 62.6046C61.9121 62.5706 61.8267 62.5531 61.7403 62.5531C61.654 62.5531 61.5685 62.5706 61.489 62.6046C61.4095 62.6387 61.3375 62.6885 61.2774 62.7512C61.2173 62.8138 61.1703 62.8881 61.1391 62.9695C61.1079 63.0508 61.0933 63.1377 61.096 63.225V68.3444C61.096 68.5959 60.9971 68.837 60.8212 69.0148C60.6453 69.1926 60.4068 69.2925 60.158 69.2925C59.9093 69.2925 59.6707 69.1926 59.4948 69.0148C59.3189 68.837 59.2201 68.5959 59.2201 68.3444V61.0881C59.2209 60.1798 59.5782 59.3089 60.2136 58.6665C60.849 58.0242 61.7105 57.6628 62.6092 57.6618H69.408C70.2731 57.6631 71.1051 57.9982 71.7339 58.5987C72.3628 59.1993 72.741 60.0198 72.7914 60.8928C72.004 61.7622 71.5676 62.8983 71.5683 64.077V69.2489C71.3794 69.1873 71.2147 69.0668 71.0978 68.9046C70.9809 68.7424 70.918 68.547 70.918 68.3463ZM86.4371 71.3352C86.4371 71.5871 86.3382 71.8286 86.162 72.0067C85.9858 72.1848 85.7468 72.2848 85.4976 72.2848C85.2485 72.2848 85.0095 72.1848 84.8333 72.0067C84.6571 71.8286 84.5581 71.5871 84.5581 71.3352V66.2158C84.5529 66.0465 84.4828 65.886 84.3625 65.7682C84.2422 65.6503 84.0813 65.5844 83.9138 65.5844C83.7463 65.5844 83.5854 65.6503 83.4651 65.7682C83.3448 65.886 83.2746 66.0465 83.2694 66.2158V81.8143C83.2694 82.2134 83.1126 82.5962 82.8334 82.8784C82.5541 83.1606 82.1755 83.3191 81.7806 83.3191C81.3857 83.3191 81.0071 83.1606 80.7278 82.8784C80.4486 82.5962 80.2918 82.2134 80.2918 81.8143V75.2924C80.2918 75.1195 80.2239 74.9538 80.103 74.8316C79.9821 74.7094 79.8181 74.6407 79.6471 74.6407C79.4761 74.6407 79.3122 74.7094 79.1913 74.8316C79.0704 74.9538 79.0024 75.1195 79.0024 75.2924V81.8143C79.0024 82.2134 78.8456 82.5962 78.5664 82.8784C78.2872 83.1606 77.9085 83.3191 77.5136 83.3191C77.1188 83.3191 76.7401 83.1606 76.4609 82.8784C76.1816 82.5962 76.0248 82.2134 76.0248 81.8143V66.2139C76.0196 66.0446 75.9494 65.8841 75.8291 65.7663C75.7089 65.6484 75.5479 65.5825 75.3804 65.5825C75.2129 65.5825 75.052 65.6484 74.9317 65.7663C74.8115 65.8841 74.7413 66.0446 74.7361 66.2139V71.3333C74.7361 71.5852 74.6371 71.8267 74.4609 72.0048C74.2847 72.1829 74.0457 72.2829 73.7966 72.2829C73.5474 72.2829 73.3084 72.1829 73.1322 72.0048C72.956 71.8267 72.8571 71.5852 72.8571 71.3333V64.077C72.8567 63.628 72.944 63.1833 73.114 62.7684C73.2839 62.3536 73.5332 61.9767 73.8475 61.6594C73.8727 61.6385 73.8963 61.6157 73.9182 61.5912C74.5461 60.9876 75.3796 60.6511 76.2461 60.6514H83.0481C83.9145 60.6509 84.748 60.9872 85.376 61.5906C85.3975 61.6152 85.4209 61.638 85.4461 61.6588C85.7606 61.9761 86.01 62.3531 86.1801 62.768C86.3501 63.183 86.4375 63.6278 86.4371 64.077V71.3352ZM100.077 68.5656C100.077 68.8171 99.9784 69.0582 99.8025 69.236C99.6266 69.4138 99.3881 69.5137 99.1393 69.5137C98.8906 69.5137 98.652 69.4138 98.4761 69.236C98.3002 69.0582 98.2014 68.8171 98.2014 68.5656V63.4462C98.1962 63.277 98.126 63.1164 98.0057 62.9986C97.8855 62.8808 97.7245 62.8149 97.557 62.8149C97.3895 62.8149 97.2286 62.8808 97.1083 62.9986C96.988 63.1164 96.9179 63.277 96.9127 63.4462V79.0447C96.9167 79.245 96.8812 79.444 96.8082 79.6303C96.7352 79.8165 96.6261 79.9861 96.4875 80.1292C96.3488 80.2722 96.1832 80.3859 96.0006 80.4635C95.8179 80.5411 95.6217 80.5811 95.4235 80.5811C95.2254 80.5811 95.0292 80.5411 94.8465 80.4635C94.6638 80.3859 94.4983 80.2722 94.3596 80.1292C94.2209 79.9861 94.1119 79.8165 94.0389 79.6303C93.9659 79.444 93.9303 79.245 93.9344 79.0447V72.5222C93.9292 72.3529 93.859 72.1924 93.7387 72.0746C93.6185 71.9567 93.4575 71.8908 93.29 71.8908C93.1225 71.8908 92.9616 71.9567 92.8413 72.0746C92.7211 72.1924 92.6509 72.3529 92.6457 72.5222V79.0447C92.6497 79.245 92.6142 79.444 92.5412 79.6303C92.4682 79.8165 92.3591 79.9861 92.2205 80.1292C92.0818 80.2722 91.9163 80.3859 91.7336 80.4635C91.5509 80.5411 91.3547 80.5811 91.1565 80.5811C90.9584 80.5811 90.7622 80.5411 90.5795 80.4635C90.3968 80.3859 90.2313 80.2722 90.0926 80.1292C89.9539 79.9861 89.8449 79.8165 89.7719 79.6303C89.6989 79.444 89.6633 79.245 89.6674 79.0447V63.4443C89.6622 63.2751 89.592 63.1145 89.4717 62.9967C89.3515 62.8789 89.1905 62.813 89.023 62.813C88.8555 62.813 88.6946 62.8789 88.5743 62.9967C88.4541 63.1145 88.3839 63.2751 88.3787 63.4443V68.5637C88.3783 68.7644 88.3152 68.9597 88.1984 69.1219C88.0816 69.2841 87.9171 69.4049 87.7284 69.4669V64.077C87.7292 62.9077 87.2997 61.7799 86.5234 60.913C86.6251 60.0809 87.0225 59.3144 87.6416 58.7564C88.2607 58.1983 89.0593 57.8866 89.8888 57.8793H96.6882C97.5867 57.8803 98.4482 58.2415 99.0835 58.8837C99.7189 59.5259 100.076 60.3967 100.077 61.3049V68.5656ZM93.2872 55.6684C94.0803 55.6683 94.8555 55.4305 95.5149 54.985C96.1742 54.5396 96.6881 53.9065 96.9915 53.1659C97.2949 52.4252 97.3743 51.6103 97.2195 50.8241C97.0647 50.0379 96.6827 49.3157 96.1219 48.7489C95.561 48.1821 94.8465 47.7962 94.0687 47.6398C93.2908 47.4835 92.4846 47.5638 91.7519 47.8706C91.0192 48.1774 90.393 48.6969 89.9524 49.3634C89.5118 50.03 89.2766 50.8136 89.2766 51.6152C89.2778 52.6899 89.7007 53.7203 90.4526 54.4802C91.2045 55.2401 92.2239 55.6674 93.2872 55.6684ZM93.2872 48.8646C93.8255 48.8645 94.3517 49.0257 94.7992 49.3279C95.2468 49.63 95.5957 50.0596 95.8018 50.5622C96.0079 51.0648 96.0618 51.6178 95.9569 52.1514C95.852 52.685 95.5928 53.1752 95.2123 53.5599C94.8317 53.9447 94.3469 54.2067 93.819 54.3129C93.2911 54.4191 92.7439 54.3647 92.2466 54.1565C91.7493 53.9483 91.3243 53.5958 91.0252 53.1434C90.7262 52.6911 90.5666 52.1592 90.5666 51.6152C90.5674 50.8861 90.8543 50.187 91.3643 49.6714C91.8743 49.1557 92.5659 48.8656 93.2872 48.8646ZM66.007 55.4485C66.8001 55.4485 67.5754 55.2107 68.2349 54.7653C68.8943 54.3199 69.4083 53.6869 69.7118 52.9462C70.0153 52.2055 70.0947 51.3905 69.9399 50.6043C69.7851 49.818 69.4031 49.0958 68.8423 48.529C68.2814 47.9622 67.5668 47.5762 66.7889 47.4198C66.011 47.2635 65.2047 47.3439 64.472 47.6508C63.7393 47.9576 63.113 48.4772 62.6725 49.1439C62.2319 49.8105 61.9969 50.5942 61.997 51.3959C61.9983 52.4704 62.4212 53.5005 63.173 54.2602C63.9247 55.02 64.9439 55.4473 66.007 55.4485ZM66.007 48.6453C66.5452 48.6453 67.0713 48.8066 67.5188 49.1089C67.9664 49.4111 68.3152 49.8407 68.5211 50.3433C68.7271 50.8459 68.781 51.3989 68.676 51.9325C68.571 52.4661 68.3118 52.9562 67.9312 53.3409C67.5506 53.7255 67.0658 53.9875 66.5379 54.0936C66.01 54.1998 65.4629 54.1453 64.9656 53.9371C64.4684 53.7289 64.0434 53.3764 63.7443 52.924C63.4453 52.4717 63.2857 51.9399 63.2857 51.3959C63.2864 50.6666 63.5733 49.9674 64.0835 49.4517C64.5937 48.936 65.2855 48.646 66.007 48.6453ZM99.5595 82.4299H88.3418C88.2572 82.4298 88.1733 82.4466 88.0951 82.4792C88.0169 82.5119 87.9458 82.5599 87.886 82.6203C87.8261 82.6808 87.7786 82.7526 87.7462 82.8316C87.7138 82.9106 87.6971 82.9953 87.6971 83.0809C87.6971 83.0916 87.6971 83.1017 87.6971 83.1118C87.6971 83.1624 87.7009 83.213 87.7021 83.2648C87.7411 85.4243 86.9297 87.511 85.4466 89.0659C83.9634 90.6207 81.9299 91.5164 79.7934 91.5558C77.6569 91.5952 75.5925 90.7751 74.0542 89.2759C72.5159 87.7768 71.6298 85.7214 71.5908 83.5618C71.5908 83.4152 71.5908 83.261 71.5958 83.1043C71.5958 83.0967 71.5958 83.0885 71.5958 83.0802C71.5958 82.9076 71.528 82.742 71.4072 82.6199C71.2864 82.4978 71.1226 82.4292 70.9518 82.4292H59.7228C59.6372 82.4292 59.5525 82.4465 59.4736 82.4799C59.3946 82.5134 59.3231 82.5624 59.2631 82.6241C59.2032 82.6859 59.156 82.7591 59.1243 82.8394C59.0927 82.9198 59.0772 83.0058 59.0788 83.0922L59.1232 85.5742C59.1366 86.2375 59.4094 86.8684 59.8819 87.3289C60.3544 87.7894 60.9881 88.0421 61.6443 88.0316L63.0137 88.0063C63.4496 89.6265 64.1169 91.1737 64.9946 92.5993L64.0436 93.596C63.589 94.0745 63.3404 94.7154 63.3521 95.3787C63.3638 96.042 63.6349 96.6736 64.1061 97.1353L66.6467 99.611C67.12 100.07 67.7542 100.322 68.4104 100.31C69.0666 100.298 69.6914 100.024 70.1483 99.5478L71.0994 98.5492C72.5406 99.3836 74.0946 100.001 75.7121 100.382L75.7372 101.766C75.7504 102.422 76.0167 103.046 76.4792 103.505C76.9417 103.964 77.5636 104.223 78.2121 104.225H78.2583L81.7856 104.162C82.4418 104.148 83.066 103.872 83.5216 103.395C83.9771 102.917 84.2268 102.277 84.2161 101.613L84.1911 100.23C85.7942 99.7891 87.3251 99.1145 88.7357 98.2275L89.7218 99.1888C90.1949 99.6489 90.8291 99.9006 91.4855 99.8888C92.1419 99.8769 92.7669 99.6025 93.2234 99.1256L95.6715 96.5589C96.1268 96.0808 96.3759 95.4397 96.3642 94.7762C96.3525 94.1126 96.0809 93.4809 95.6089 93.0196L94.6228 92.0582C95.4485 90.6013 96.0594 89.0304 96.4362 87.3951L97.8056 87.3698C98.4618 87.3564 99.086 87.0807 99.5415 86.603C99.9971 86.1254 100.247 85.4848 100.236 84.8215L100.205 83.0739C100.203 82.9023 100.134 82.7384 100.013 82.6178C99.8923 82.4972 99.7293 82.4297 99.5595 82.4299ZM98.6122 85.6943C98.5046 85.8083 98.3757 85.8996 98.233 85.9629C98.0902 86.0261 97.9364 86.0601 97.7806 86.0628L95.9047 86.0976C95.758 86.1004 95.6166 86.1537 95.5039 86.2488C95.3913 86.3438 95.314 86.4748 95.285 86.6202C94.9178 88.4619 94.2324 90.2237 93.2603 91.825C93.1838 91.9515 93.1523 92.1006 93.1709 92.2477C93.1895 92.3948 93.2573 92.5311 93.3629 92.634L94.7154 93.9524C94.9422 94.1734 95.0729 94.4764 95.0788 94.7947C95.0846 95.1131 94.9652 95.4207 94.7467 95.6501L92.298 98.2167C92.0793 98.4459 91.7795 98.5779 91.4646 98.5837C91.1496 98.5895 90.8453 98.4687 90.6185 98.2477L89.2653 96.9293C89.1598 96.8262 89.0226 96.7627 88.8765 96.7492C88.7303 96.7358 88.584 96.7732 88.4618 96.8554C86.9141 97.8957 85.197 98.6522 83.3895 99.0902C83.2468 99.1249 83.1202 99.2078 83.0304 99.3251C82.9407 99.4425 82.8933 99.5872 82.8961 99.7355L82.9299 101.632C82.9341 101.949 82.814 102.256 82.5958 102.485C82.3775 102.714 82.0788 102.846 81.7643 102.854L78.2377 102.917C77.923 102.922 77.6192 102.801 77.3929 102.58C77.2802 102.471 77.1899 102.341 77.1273 102.196C77.0647 102.052 77.0311 101.897 77.0284 101.739L76.994 99.843C76.9914 99.6946 76.9387 99.5517 76.8448 99.4377C76.7509 99.3237 76.6213 99.2455 76.4775 99.216C74.6554 98.8453 72.9123 98.1527 71.3282 97.1701C71.2032 97.0926 71.0556 97.0605 70.9101 97.0792C70.7646 97.098 70.6297 97.1664 70.5279 97.2731L69.2229 98.6408C69.1147 98.7544 68.9854 98.8451 68.8423 98.9077C68.6992 98.9703 68.5453 99.0035 68.3894 99.0055C68.2334 99.01 68.0782 98.9827 67.9329 98.9254C67.7875 98.8681 67.6551 98.7818 67.5433 98.6718L65.0015 96.198C64.776 95.9764 64.6463 95.6737 64.6406 95.3558C64.635 95.0379 64.7539 94.7307 64.9715 94.501L66.2759 93.1333C66.3778 93.0266 66.4405 92.8879 66.4537 92.7402C66.4669 92.5924 66.4297 92.4446 66.3484 92.3212C65.32 90.7565 64.5724 89.021 64.1399 87.1941C64.106 87.0522 64.026 86.9258 63.9126 86.8353C63.7992 86.7447 63.6591 86.6953 63.5146 86.6948H63.5027L61.6268 86.7296C61.3123 86.7342 61.0087 86.6129 60.7821 86.3923C60.5556 86.1716 60.4246 85.8694 60.4175 85.5515L60.385 83.7325H70.3146C70.3954 86.1793 71.4132 88.4989 73.1533 90.2018C74.8935 91.9047 77.22 92.8579 79.6421 92.8603C79.7003 92.8603 79.759 92.8603 79.8172 92.8603C82.2117 92.8163 84.4981 91.8448 86.2044 90.1462C87.9108 88.4477 88.9069 86.1518 88.9871 83.7325H98.9292L98.9492 84.8411C98.9517 84.9988 98.9232 85.1554 98.8654 85.3019C98.8075 85.4483 98.7215 85.5817 98.6122 85.6943Z" fill="#CF2031"/>
  <defs>
    <filter id="filter0_d_409_55" x="0.0754585" y="0.861007" width="159.143" height="159.143" filterUnits="userSpaceOnUse" color-interpolation-filters="sRGB">
      <feFlood flood-opacity="0" result="BackgroundImageFix"/>
      <feColorMatrix in="SourceAlpha" type="matrix" values="0 0 0 0 0 0 0 0 0 0 0 0 0 0 0 0 0 0 127 0" result="hardAlpha"/>
      <feOffset dy="4.51303"/>
      <feGaussianBlur stdDeviation="16.9238"/>
      <feComposite in2="hardAlpha" operator="out"/>
      <feColorMatrix type="matrix" values="0 0 0 0 0.575 0 0 0 0 0.565417 0 0 0 0 0.565417 0 0 0 0.25 0"/>
      <feBlend mode="normal" in2="BackgroundImageFix" result="effect1_dropShadow_409_55"/>
      <feBlend mode="normal" in="SourceGraphic" in2="effect1_dropShadow_409_55" result="shape"/>
    </filter>
  </defs>
</svg>